<svg viewBox="0 0 35 34" fill="none" xmlns="http://www.w3.org/2000/svg">
<path d="M34 17C34 25.8094 26.6402 33 17.5 33C8.35978 33 1 25.8094 1 17C1 8.19057 8.35978 1 17.5 1C26.6402 1 34 8.19057 34 17Z" stroke="white" stroke-width="2"/>
<path d="M8.29289 16.2929C7.90237 16.6834 7.90237 17.3166 8.29289 17.7071L14.6569 24.0711C15.0474 24.4616 15.6805 24.4616 16.0711 24.0711C16.4616 23.6805 16.4616 23.0474 16.0711 22.6569L10.4142 17L16.0711 11.3431C16.4616 10.9526 16.4616 10.3195 16.0711 9.92893C15.6805 9.53841 15.0474 9.53841 14.6569 9.92893L8.29289 16.2929ZM26 16L9 16V18L26 18V16Z" fill="white"/>
</svg>
