<svg width="34" height="34" viewBox="0 0 34 34" fill="none" xmlns="http://www.w3.org/2000/svg">
<path d="M10.8335 25.1113L17.0002 18.9446L23.1668 25.1113L25.1114 23.1667L18.9447 17L25.1114 10.8333L23.1668 8.88875L17.0002 15.0554L10.8335 8.88875L8.88891 10.8333L15.0556 17L8.88891 23.1667L10.8335 25.1113ZM17.0002 33.6667C14.7132 33.6667 12.5559 33.2292 10.5281 32.3542C8.5003 31.4792 6.73169 30.2871 5.22225 28.7779C3.71308 27.2685 2.521 25.4999 1.646 23.4721C0.770996 21.4443 0.333496 19.2869 0.333496 17C0.333496 14.6944 0.770996 12.5278 1.646 10.5C2.521 8.47222 3.71308 6.70833 5.22225 5.20833C6.73169 3.70833 8.5003 2.52083 10.5281 1.64583C12.5559 0.770832 14.7132 0.333332 17.0002 0.333332C19.3057 0.333332 21.4724 0.770832 23.5002 1.64583C25.5279 2.52083 27.2918 3.70833 28.7918 5.20833C30.2918 6.70833 31.4793 8.47222 32.3543 10.5C33.2293 12.5278 33.6668 14.6944 33.6668 17C33.6668 19.2869 33.2293 21.4443 32.3543 23.4721C31.4793 25.4999 30.2918 27.2685 28.7918 28.7779C27.2918 30.2871 25.5279 31.4792 23.5002 32.3542C21.4724 33.2292 19.3057 33.6667 17.0002 33.6667ZM17.0002 30.8888C20.8704 30.8888 24.1528 29.5369 26.8472 26.8333C29.5417 24.1297 30.8889 20.8519 30.8889 17C30.8889 13.1297 29.5417 9.84736 26.8472 7.15292C24.1528 4.45847 20.8704 3.11125 17.0002 3.11125C13.1482 3.11125 9.87044 4.45847 7.16683 7.15292C4.46322 9.84736 3.11141 13.1297 3.11141 17C3.11141 20.8519 4.46322 24.1297 7.16683 26.8333C9.87044 29.5369 13.1482 30.8888 17.0002 30.8888Z" fill="#F34213"/>
</svg>
