<svg width="28" height="27" viewBox="0 0 28 27" fill="none" xmlns="http://www.w3.org/2000/svg">
<path d="M13.9998 12.9721C12.1665 12.9721 10.6433 12.3657 9.43025 11.1529C8.21748 9.93986 7.61109 8.41666 7.61109 6.58333C7.61109 4.75 8.21748 3.2268 9.43025 2.01375C10.6433 0.80097 12.1665 0.19458 13.9998 0.19458C15.8332 0.19458 17.3564 0.80097 18.5694 2.01375C19.7822 3.2268 20.3886 4.75 20.3886 6.58333C20.3886 8.41666 19.7822 9.93986 18.5694 11.1529C17.3564 12.3657 15.8332 12.9721 13.9998 12.9721ZM0.666504 26.3333V22.1667C0.666504 21.1481 0.923448 20.2568 1.43734 19.4929C1.95123 18.729 2.62025 18.1481 3.44442 17.75C5.25914 16.9075 7.0322 16.2756 8.76359 15.8542C10.4953 15.4328 12.2407 15.2221 13.9998 15.2221C15.759 15.2221 17.4997 15.4374 19.2219 15.8679C20.9441 16.2985 22.7119 16.9276 24.5253 17.7554C25.3736 18.156 26.0536 18.7367 26.5653 19.4975C27.0772 20.2583 27.3332 21.1481 27.3332 22.1667V26.3333H0.666504ZM3.44442 23.5554H24.5553V22.1667C24.5553 21.7686 24.4419 21.3936 24.2153 21.0417C23.9883 20.6897 23.7036 20.4258 23.3611 20.25C21.6758 19.4258 20.0878 18.8449 18.5969 18.5071C17.1064 18.169 15.574 18 13.9998 18C12.4257 18 10.884 18.169 9.37484 18.5071C7.86567 18.8449 6.27775 19.4258 4.61109 20.25C4.26831 20.4258 3.98817 20.6897 3.77067 21.0417C3.55317 21.3936 3.44442 21.7686 3.44442 22.1667V23.5554ZM13.9998 10.1946C15.0276 10.1946 15.8864 9.84958 16.5761 9.15958C17.2661 8.46986 17.6111 7.61111 17.6111 6.58333C17.6111 5.55555 17.2661 4.6968 16.5761 4.00708C15.8864 3.31708 15.0276 2.97208 13.9998 2.97208C12.9721 2.97208 12.1133 3.31708 11.4236 4.00708C10.7336 4.6968 10.3886 5.55555 10.3886 6.58333C10.3886 7.61111 10.7336 8.46986 11.4236 9.15958C12.1133 9.84958 12.9721 10.1946 13.9998 10.1946Z" fill="white"/>
</svg>
